<svg width="73" height="73" viewBox="0 0 73 73" fill="none" xmlns="http://www.w3.org/2000/svg">
<g clip-path="url(#clip0_295_387)">
<path d="M36.717 73.0054C56.6737 73.0054 72.8519 56.8273 72.8519 36.8705C72.8519 16.9138 56.6737 0.735596 36.717 0.735596C16.7602 0.735596 0.582031 16.9138 0.582031 36.8705C0.582031 56.8273 16.7602 73.0054 36.717 73.0054Z" fill="white"/>
<path fill-rule="evenodd" clip-rule="evenodd" d="M28.8793 33.6401L36.7169 25.7988L44.5763 33.6582L49.1401 29.0943L36.7169 16.6711L24.3118 29.0726L28.8793 33.6401ZM16.5175 36.8706L21.0814 32.3067L25.6452 36.8706L21.0814 41.4344L16.5175 36.8706ZM28.8793 40.1227L36.7169 47.9423L44.5763 40.083L49.1401 44.6468L36.7169 57.0736L24.3118 44.6685L28.8793 40.1227ZM47.7887 36.8706L52.3525 32.3067L56.92 36.8706L52.3525 41.4344L47.7887 36.8706ZM41.3639 36.8706L36.7169 41.4958L32.0917 36.8706L32.8975 36.0611L33.3022 35.66L36.7169 32.2453L41.3639 36.8706Z" fill="black"/>
</g>
<defs>
<clipPath id="clip0_295_387">
<rect width="72.2698" height="72.2699" fill="white" transform="translate(0.582031 0.735596)"/>
</clipPath>
</defs>
</svg>
